<svg xmlns="http://www.w3.org/2000/svg" xmlns:xlink="http://www.w3.org/1999/xlink" width="87" height="68" viewBox="0 0 87 68">
    <defs>
        <path id="jfistsz6ia" d="M0.194 0.17L86.751 0.17 86.751 67.88 0.194 67.88z"/>
    </defs>
    <g fill="none" fill-rule="evenodd">
        <g>
            <g>
                <g transform="translate(-26) translate(26)">
                    <mask id="jwjmr1p4nb" fill="#fff">
                        <use xlink:href="#jfistsz6ia"/>
                    </mask>
                    <path fill="#F50005" d="M86.972 30.278c0 50.136-86.778 50.136-86.778 0V.097h86.778v30.18z" mask="url(#jwjmr1p4nb)"/>
                </g>
                <path fill="#FFF" d="M26.969 22.308c-2.978 0-6.253 1.756-6.857 4.718-.642 3.161 2.216 3.841 4.049 3.861 4.125.05 6.634-2.383 7.212-4.861.552-2.38-1.58-3.718-4.404-3.718m-2.033 7.166c-.709 0-1.222-.176-1.522-.522-.327-.375-.41-.958-.25-1.731.29-1.403 1.528-3.497 3.747-3.497.537 0 .938.15 1.19.444.295.339.385.869.257 1.493-.75 3.627-2.983 3.813-3.422 3.813M51.594 22.659c1.075-.17 2.091-.351 4.054-.351 3.155 0 5.094 1.029 4.189 3.345-.393 1-.796 2.048-1.14 2.931-.478 1.234-.375 1.705-.275 2.142 0 0-.744-.268-2.29-.224-1.384.038-1.982.386-4.25.386-2.453 0-3.35-1.193-3.255-2.457.086-1.11.713-2.075 2.115-2.624.93-.364 1.856-.486 2.815-.56 1.481-.115 2.8-.05 3.518 0 .127-.415.312-1.26-1.768-1.273-2.227-.017-3.747.366-4.451.58l.738-1.895zm2.3 4.139c-1.55.157-2.126.552-2.257 1.288-.104.586.281 1.134 1.724 1.072.844-.037 1.759-.238 2.403-.555l.717-1.846c-1.074-.06-1.805-.038-2.586.04zM47.81 22.723c-1.481 0-1.547-.415-3.957-.415-3.46 0-6.305 2.604-6.71 5.48-.13.905.12 1.716.63 2.285.529.59 1.329.822 2.277.865 1.402.063 2.686-.224 3.916-1.045-.72 2.184-3.176 2.637-4.824 2.627-.805-.004-1.687-.04-2.383-.38l-.723 1.854c.723.197 1.802.326 2.665.326 4.044 0 6.645-1.48 7.73-4.388l2.761-7.438s-.822.23-1.382.23m-6.358 6.645c-1.683 0-1.53-1.672-.938-2.978.759-1.672 2.29-2.437 3.263-2.473.725-.03 1.33.083 1.814.555-1.141 4.54-3.453 4.896-4.139 4.896M19.407 27.91c-.537.249-1.838.628-2.867.628-2.778 0-3.63-1.643-3.334-3.242.487-2.638 3.098-4.64 6.195-4.64.956 0 1.812.177 2.576.484l.903-1.716c-.763-.338-1.844-.548-2.852-.548-4.947 0-9.573 2.747-10.23 6.408-.577 3.233 2.287 5.032 5.804 5.032.945 0 1.993-.144 2.863-.344l.942-2.062zM66.025 21.702l.614-1.682-3.108.545-.427 1.137h-1.37l-.496 1.388h1.36l-1.634 4.12c-.419 1.046-.442 1.812-.067 2.338.365.515 1.094.768 2.225.768.632 0 1.49-.133 2.16-.313l.66-1.623v-.001c-.375.157-.98.316-1.473.334-.35.014-.555-.064-.682-.238-.185-.248-.137-.743.129-1.422 0 0 1.35-3.377 1.582-3.963h2.047l.523-1.388h-2.043zM75.478 28.556c-.814.404-2.222.624-3.162.624-.82 0-1.49-.28-1.886-.79-.362-.461-.452-1.078-.272-1.749h6.68l.033-.089c.522-1.487.457-2.776-.188-3.633-.587-.785-1.615-1.183-3.032-1.183-3.163 0-5.853 1.802-6.553 4.38-.352 1.302-.168 2.446.528 3.304.768.947 2.115 1.468 3.79 1.468.969 0 2.136-.176 3.191-.5l.87-1.832zm-2.222-5.312c.53 0 .9.138 1.105.41.24.321.25.846.034 1.515H70.6c.289-.92 1.136-1.925 2.656-1.925z" transform="translate(-26) translate(26)"/>
                <path fill="#FFF" d="M75.478 28.556c-.814.404-2.222.624-3.162.624-.82 0-1.49-.28-1.886-.79-.362-.461-.452-1.078-.272-1.749h6.68l.033-.089c.522-1.487.457-2.776-.188-3.633-.587-.785-1.615-1.183-3.032-1.183-3.163 0-5.853 1.802-6.553 4.38-.352 1.302-.168 2.446.528 3.304.768.947 2.115 1.468 3.79 1.468.969 0 2.136-.176 3.191-.5l.87-1.832zm-2.222-5.312c.53 0 .9.138 1.105.41.24.321.25.846.034 1.515H70.6c.289-.92 1.136-1.925 2.656-1.925zM78.381 20.592c.624 0 1.127.51 1.127 1.14 0 .638-.503 1.148-1.147 1.148-.633 0-1.141-.51-1.141-1.147 0-.63.508-1.141 1.14-1.141h.021zm-.029.286c-.452 0-.792.378-.792.862 0 .469.34.855.8.855.47.007.812-.386.812-.862 0-.477-.342-.855-.814-.855h-.006zm-.126 1.399h-.318v-1.055c.071-.012.239-.039.45-.039.233 0 .336.032.414.084.064.048.11.128.11.234 0 .106-.097.199-.239.239v.013c.115.033.181.12.212.271.033.153.053.213.071.253h-.353c-.034-.04-.054-.132-.072-.226-.018-.106-.068-.16-.171-.16h-.104v.386zm.01-.603h.094c.11 0 .19-.053.19-.126 0-.087-.076-.133-.178-.133-.04 0-.082.008-.105.008v.25zM35.929 18.876L31.46 30.316 34.426 30.316 38.896 18.876zM62.108 34.336c-2.362 2.62-5.132 4.787-8.223 6.254-3.08 1.476-6.453 2.245-9.84 2.242-3.388-.002-6.76-.775-9.835-2.255-3.087-1.469-5.85-3.635-8.207-6.257l-.835 2.127c1.903 2.801 4.508 5.191 7.543 6.91 3.405 1.935 7.37 2.982 11.334 2.975 3.962.003 7.925-1.048 11.327-2.987 3.04-1.727 5.648-4.13 7.548-6.944l-.812-2.065z" transform="translate(-26) translate(26)"/>
            </g>
        </g>
    </g>
</svg>
